<svg xmlns="http://www.w3.org/2000/svg" xmlns:xlink="http://www.w3.org/1999/xlink" viewBox="0 0 360 640"><defs><style>.cls-1{fill:#ee396a;}.cls-2{fill:url(#Gradient_bez_nazwy_26);}.cls-3{fill:url(#Gradient_bez_nazwy_26-2);}</style><linearGradient id="Gradient_bez_nazwy_26" x1="203.36" y1="166.91" x2="146.03" y2="-25.63" gradientUnits="userSpaceOnUse"><stop offset="0" stop-color="#401381"/><stop offset="1" stop-color="#d11137"/></linearGradient><linearGradient id="Gradient_bez_nazwy_26-2" x1="99.24" y1="416.33" x2="318.05" y2="682.44" xlink:href="#Gradient_bez_nazwy_26"/></defs><title>Asset 22</title><g id="Layer_2" data-name="Layer 2"><g id="Background"><rect class="cls-1" width="360" height="640"/><path class="cls-2" d="M148.89,187.86c60.7,8.51,113.79-.44,128.88-48.29C299.43,70.85,226.9,47.8,288.13,29.3c15.38-4.65,33.38-14.55,45.63-29.3H0V88.79C31.15,149.74,80.91,178.32,148.89,187.86Z"/><path class="cls-3" d="M298.64,467.94c-48.47-15.22-98.92,13.55-90.31,68.89,12,77.36-57.56,42-94,51.85-35.94,9.75-50,26.67-52,51.32H360V465C350.57,477.37,339.46,480.75,298.64,467.94Z"/></g></g></svg>