<svg xmlns="http://www.w3.org/2000/svg" xmlns:xlink="http://www.w3.org/1999/xlink" viewBox="0 0 1366 768"><defs><style>.cls-1{fill:#ff3369;}.cls-2{fill:url(#Gradient_bez_nazwy_26);}.cls-3{fill:url(#Gradient_bez_nazwy_26-2);}</style><linearGradient id="Gradient_bez_nazwy_26" x1="435.88" y1="357.74" x2="313" y2="-54.93" gradientUnits="userSpaceOnUse"><stop offset="0" stop-color="#401381"/><stop offset="1" stop-color="#d11137"/></linearGradient><linearGradient id="Gradient_bez_nazwy_26-2" x1="807.09" y1="288.59" x2="1276.08" y2="858.96" xlink:href="#Gradient_bez_nazwy_26"/></defs><title>backgroudAsset 24</title><g id="Layer_2" data-name="Layer 2"><g id="Background"><rect class="cls-1" width="1366" height="768"/><path class="cls-2" d="M319.13,402.65c130.1,18.24,243.9-.95,276.23-103.51,46.43-147.28-109-196.68,22.22-236.33,33-10,71.54-31.18,97.8-62.81H0V190.31C66.78,320.94,173.41,382.21,319.13,402.65Z"/><path class="cls-3" d="M1234.49,399.21c-103.89-32.61-212,29-193.56,147.66,25.82,165.82-123.38,90-201.45,111.13-77,20.89-107.25,57.16-111.4,110H1366V392.83C1345.8,419.42,1322,426.67,1234.49,399.21Z"/></g></g></svg>